<svg width="327" height="203" viewBox="0 0 327 203" fill="none" xmlns="http://www.w3.org/2000/svg">
<g clip-path="url(#clip0_10698_32617)">
<ellipse opacity="0.66" cx="163.564" cy="128.142" rx="125.132" ry="73.7595" fill="url(#paint0_radial_10698_32617)"/>
<g opacity="0.75" filter="url(#filter0_f_10698_32617)">
<path d="M131.889 145.915C130.31 144.389 130.887 143.982 131.438 144.036L135.548 143.222C141.123 145.304 156.097 144.643 149.118 149.265C145.498 151.663 140.339 150.653 139.198 150.276C138.056 149.899 134.336 148.282 131.889 145.915Z" fill="black"/>
</g>
<g opacity="0.75" filter="url(#filter1_f_10698_32617)">
<ellipse cx="139.045" cy="147.199" rx="25.9365" ry="5.83593" transform="rotate(26.5058 139.045 147.199)" fill="url(#paint1_radial_10698_32617)"/>
</g>
<g opacity="0.75" filter="url(#filter2_f_10698_32617)">
<path d="M197.35 160.313L158.501 141.29L165.034 134.926C178.302 141.16 205.07 153.86 205.998 154.784C206.925 155.708 206.384 156.452 205.998 156.709C205.225 157.24 203.238 158.601 201.472 159.788C199.705 160.976 197.988 160.633 197.35 160.313Z" fill="black"/>
</g>
<g opacity="0.75" filter="url(#filter3_f_10698_32617)">
<path d="M197.54 160.499L158.691 141.476L165.224 135.112C178.492 141.346 205.26 154.046 206.187 154.97C207.115 155.894 206.574 156.638 206.187 156.895C205.415 157.426 203.428 158.786 201.662 159.974C199.895 161.162 198.178 160.819 197.54 160.499Z" fill="black"/>
</g>
<path d="M198.92 70.8211L157.301 49.0635C156.999 48.9123 156.681 48.8551 156.376 48.8763C155.531 48.9351 154.781 49.5949 154.706 50.5276L150.361 116.066C150.327 116.495 150.312 116.921 150.316 117.343C150.345 118.659 151.282 121.531 154.801 122.492C159.2 123.694 161.049 123.058 160.959 125.417C160.87 127.777 158.915 132.062 162.035 135.453C162.43 135.716 162.805 135.951 163.155 136.156L192.254 150.976C192.742 151.224 193.27 151.226 193.723 151.049L194.024 150.897C194.484 150.609 194.818 150.115 194.862 149.505C197.412 120.473 198.842 104.197 201.392 75.1655C201.524 73.3504 200.548 71.6349 198.92 70.8211Z" fill="url(#paint2_linear_10698_32617)"/>
<path d="M157.301 49.0635L198.92 70.8211C200.548 71.6349 201.524 73.3504 201.392 75.1655C198.842 104.197 197.412 120.473 194.862 149.505C194.818 150.115 194.484 150.609 194.024 150.897L195.734 150.036C196.539 149.631 197.078 148.84 197.162 147.943L204.014 74.6515C204.214 72.5212 203.096 70.4843 201.192 69.5084L160.641 48.7256C159.904 48.3478 159.057 48.2447 158.251 48.4346L156.376 48.8763C156.681 48.8551 156.999 48.9123 157.301 49.0635Z" fill="url(#paint3_linear_10698_32617)"/>
<path fill-rule="evenodd" clip-rule="evenodd" d="M202.796 157.625L210.174 75.0177C210.47 71.7078 208.71 68.5539 205.739 67.0667L154.464 41.4064C153.79 41.069 153.079 40.9651 152.406 41.0515C150.781 41.2603 149.38 42.5811 149.268 44.4006L144.126 128.3C143.903 131.93 145.891 135.336 149.16 136.928L197.643 160.537C199.137 161.265 200.807 160.855 201.834 159.772C202.362 159.214 202.72 158.477 202.796 157.625ZM192.254 150.976L163.155 136.156C162.805 135.951 162.43 135.716 162.035 135.453C157.491 132.427 150.388 125.658 150.316 117.343C150.312 116.921 150.327 116.495 150.361 116.066L154.706 50.5276C154.781 49.5949 155.531 48.9351 156.376 48.8763L158.251 48.4346C159.057 48.2447 159.904 48.3478 160.641 48.7256L201.192 69.5084C203.096 70.4843 204.214 72.5212 204.014 74.6515L197.162 147.943C197.078 148.84 196.539 149.631 195.734 150.036L194.024 150.897C193.928 150.957 193.828 151.008 193.723 151.049C193.27 151.226 192.742 151.224 192.254 150.976Z" fill="url(#paint4_linear_10698_32617)"/>
<path d="M210.174 75.0177L202.796 157.625C202.72 158.477 202.362 159.214 201.834 159.772L205.141 157.589C206.054 156.986 206.643 155.999 206.741 154.909L214.064 73.076C214.36 69.7689 212.604 66.6174 209.636 65.1286L160.657 40.545C159.945 40.1882 158.246 39.9612 157.022 40.2436L152.406 41.0515C153.079 40.9651 153.79 41.069 154.464 41.4064L205.739 67.0667C208.71 68.5539 210.47 71.7078 210.174 75.0177Z" fill="url(#paint5_linear_10698_32617)"/>
<path d="M154.801 122.492C151.282 121.531 150.345 118.659 150.316 117.343C150.388 125.658 157.491 132.427 162.035 135.453C158.915 132.062 160.87 127.777 160.959 125.417C161.049 123.058 159.2 123.694 154.801 122.492Z" fill="url(#paint6_linear_10698_32617)"/>
<path d="M152.406 41.0515C153.079 40.9651 153.79 41.069 154.464 41.4064L205.739 67.0667C208.71 68.5539 210.47 71.7078 210.174 75.0177L202.796 157.625C202.72 158.477 202.362 159.214 201.834 159.772M152.406 41.0515C150.781 41.2603 149.38 42.5811 149.268 44.4006L144.126 128.3C143.903 131.93 145.891 135.336 149.16 136.928L197.643 160.537C199.137 161.265 200.807 160.855 201.834 159.772M152.406 41.0515L157.022 40.2436C158.246 39.9612 159.945 40.1882 160.657 40.545L209.636 65.1286C212.604 66.6174 214.36 69.7689 214.064 73.076L206.741 154.909C206.643 155.999 206.054 156.986 205.141 157.588L201.834 159.772M156.376 48.8763C156.681 48.8551 156.999 48.9123 157.301 49.0635L198.92 70.8211C200.548 71.6349 201.524 73.3504 201.392 75.1655C198.842 104.197 197.412 120.473 194.862 149.505C194.818 150.115 194.484 150.609 194.024 150.897M156.376 48.8763C155.531 48.9351 154.781 49.5949 154.706 50.5276L150.361 116.066C150.327 116.495 150.312 116.921 150.316 117.343M156.376 48.8763L158.251 48.4346C159.057 48.2447 159.904 48.3478 160.641 48.7256L201.192 69.5084C203.096 70.4843 204.214 72.5212 204.014 74.6515L197.162 147.943C197.078 148.84 196.539 149.631 195.734 150.036L194.024 150.897M193.723 151.049C193.27 151.226 192.742 151.224 192.254 150.976L163.155 136.156C162.805 135.951 162.43 135.716 162.035 135.453M193.723 151.049L194.024 150.897M193.723 151.049C193.828 151.008 193.928 150.957 194.024 150.897M150.316 117.343C150.345 118.659 151.282 121.531 154.801 122.492C159.2 123.694 161.049 123.058 160.959 125.417C160.87 127.777 158.915 132.062 162.035 135.453M150.316 117.343C150.388 125.658 157.491 132.427 162.035 135.453" stroke="black" stroke-width="0.2616"/>
<path d="M172.821 44.8562L168.706 42.8649C168.222 42.6307 167.711 42.5552 167.224 42.612C166.1 42.7432 165.107 43.58 164.881 44.8004L162.799 56.0434C162.493 58.3626 162.068 61.0111 166.292 62.8738L186.406 72.3957C188.74 73.2471 189.031 73.0523 190.026 72.4261C190.804 71.9359 191.238 70.9068 191.455 69.9155L193.983 58.3627C194.429 56.3233 193.411 54.2452 191.527 53.347L187.788 51.5649C188.303 49.0497 188.49 43.6074 185.354 40.9919C183.464 39.4162 180.917 38.6675 178.615 39.0634C176.503 39.4266 174.54 40.8259 173.265 43.7059C173.106 44.0659 172.958 44.4491 172.821 44.8562Z" fill="url(#paint7_linear_10698_32617)"/>
<path d="M193.983 58.3627L191.455 69.9155C191.238 70.9068 190.804 71.9359 190.026 72.4261L190.3 72.2201L192.175 70.9184C192.721 70.5397 193.102 69.9675 193.241 69.318L195.711 57.8034C196.158 55.764 195.14 53.6859 193.256 52.7877L189.517 51.0056C190.032 48.4904 189.918 42.8453 186.993 40.6199C184.532 38.7471 181.336 37.7222 178.615 39.0634C180.917 38.6675 183.464 39.4162 185.354 40.9919C188.49 43.6074 188.303 49.0497 187.788 51.5649L191.527 53.347C193.411 54.2452 194.429 56.3233 193.983 58.3627Z" fill="url(#paint8_linear_10698_32617)"/>
<path d="M168.706 42.8649L172.821 44.8562C172.958 44.4491 173.106 44.0659 173.265 43.7059L170.233 42.3106C169.599 42.0187 168.874 41.9925 168.221 42.2379L167.224 42.612C167.711 42.5552 168.222 42.6307 168.706 42.8649Z" fill="url(#paint9_linear_10698_32617)"/>
<path d="M167.224 42.612C167.711 42.5551 168.222 42.6307 168.706 42.8649L172.821 44.8562C172.958 44.4491 173.106 44.0659 173.265 43.7059M167.224 42.612C166.1 42.7432 165.107 43.58 164.881 44.8004L162.799 56.0434C162.493 58.3626 162.068 61.0111 166.292 62.8738L186.406 72.3957C188.74 73.2471 189.031 73.0523 190.026 72.4261M167.224 42.612L168.221 42.2379C168.874 41.9925 169.599 42.0187 170.233 42.3106L173.265 43.7059M178.615 39.0634C180.917 38.6675 183.464 39.4162 185.354 40.9919C188.49 43.6074 188.303 49.0497 187.788 51.5649L191.527 53.347C193.411 54.2452 194.429 56.3233 193.983 58.3627L191.455 69.9155C191.238 70.9068 190.804 71.9359 190.026 72.4261M178.615 39.0634C176.503 39.4266 174.54 40.8259 173.265 43.7059M178.615 39.0634C181.336 37.7222 184.532 38.7471 186.993 40.6199C189.918 42.8453 190.032 48.4904 189.517 51.0056L193.256 52.7877C195.14 53.6859 196.158 55.764 195.711 57.8034L193.241 69.318C193.102 69.9675 192.721 70.5397 192.175 70.9184L190.3 72.2201L190.026 72.4261" stroke="black" stroke-width="0.2616"/>
<path d="M176.389 45.9385C176.752 44.8992 177.344 43.8262 178.246 43.2055C179.137 42.5924 180.352 42.4049 182.007 43.1795C183.367 43.8156 184.02 44.8037 184.292 45.9112C184.566 47.0267 184.454 48.2674 184.267 49.3991C184.212 49.7313 183.851 49.9175 183.541 49.7719L176.657 46.5424C176.423 46.4326 176.307 46.173 176.389 45.9385Z" fill="black" stroke="black" stroke-width="0.2616"/>
<path d="M185.434 97.9221L184.518 93.1073L184.141 91.1226L181.199 95.9213L178.536 94.6633L183.212 87.6912L181.29 78.2114L184.05 79.5144L185.246 85.7618L186.737 83.2405L187.945 81.357L190.608 82.615L186.172 89.2183L188.194 99.2277L185.434 97.9248L185.434 97.9221Z" fill="url(#paint10_linear_10698_32617)"/>
<path fill-rule="evenodd" clip-rule="evenodd" d="M170.935 91.0732L172.055 87.6689L173.541 88.3705L174.814 88.9718L174.815 88.9773L174.811 92.9064L177.423 94.1409L177.151 76.2581L173.715 74.6332L168.371 89.8625L170.935 91.0732ZM174.866 78.979L174.846 86.3998L174.844 86.4027L172.763 85.4188L174.866 78.979Z" fill="url(#paint11_linear_10698_32617)"/>
<path d="M170.759 73.2352L162.578 69.371L162.217 71.7373L165.025 73.0612L162.851 87.2565L165.415 88.4672L167.59 74.2747L169.369 75.1152L170.398 75.6014L170.759 73.2352Z" fill="url(#paint12_linear_10698_32617)"/>
<path d="M177.151 76.2581L177.423 94.1409L179.284 93.4023L179.012 75.5195L177.151 76.2581Z" fill="#450A20"/>
<path d="M174.846 86.3998L174.866 78.979L172.763 85.4188L174.844 86.4027L174.846 86.3998Z" fill="#450A20"/>
<path d="M172.055 87.6689L170.935 91.0732L172.796 90.3347L173.541 88.3705L172.055 87.6689Z" fill="#450A20"/>
<path d="M167.59 74.2747L165.415 88.4672L167.276 87.7287L169.369 75.1152L167.59 74.2747Z" fill="#450A20"/>
<path d="M170.759 73.2352L170.398 75.6014L172.258 74.8629L172.62 72.4966L170.759 73.2352Z" fill="#450A20"/>
<path d="M162.578 69.371L170.759 73.2352L172.62 72.4966L164.439 68.6324L162.578 69.371Z" fill="#9A3E60"/>
<path d="M173.715 74.6332L177.151 76.2581L179.012 75.5195L175.575 73.8947L173.715 74.6332Z" fill="#9A3E60"/>
<path d="M184.05 79.5144L185.246 85.7618L186.737 83.2405L185.91 78.7758L184.05 79.5144Z" fill="#450A20"/>
<path d="M181.29 78.2114L184.05 79.5144L185.91 78.7758L183.15 77.4729L181.29 78.2114Z" fill="#9A3E60"/>
<path d="M187.945 81.357L190.608 82.615L192.469 81.8765L189.805 80.6184L187.945 81.357Z" fill="#9A3E60"/>
<path d="M190.608 82.615L186.172 89.2183L188.032 88.4797L192.469 81.8765L190.608 82.615Z" fill="#450A20"/>
<path d="M186.172 89.2183L188.194 99.2277L190.055 98.4892L188.032 88.4797L186.172 89.2183Z" fill="#450A20"/>
<path d="M184.141 91.1226L181.199 95.9213L183.105 95.109L184.518 93.1073L184.141 91.1226Z" fill="#450A20"/>
<path d="M162.578 69.371L170.759 73.2352M162.578 69.371L162.217 71.7373L165.025 73.0612L162.851 87.2565L165.415 88.4672M162.578 69.371L164.439 68.6324L172.62 72.4966M170.759 73.2352L170.398 75.6014M170.759 73.2352L172.62 72.4966M170.398 75.6014L169.369 75.1152M170.398 75.6014L172.258 74.8629L172.62 72.4966M165.415 88.4672L167.59 74.2747L169.369 75.1152M165.415 88.4672L167.276 87.7287L169.369 75.1152M170.935 91.0732L172.055 87.6689L173.541 88.3705M170.935 91.0732L168.371 89.8625L173.715 74.6332M170.935 91.0732L172.796 90.3347L173.541 88.3705M173.715 74.6332L177.151 76.2581M173.715 74.6332L175.575 73.8947L179.012 75.5195M177.151 76.2581L177.423 94.1409M177.151 76.2581L179.012 75.5195M177.423 94.1409L174.811 92.9064L174.815 88.9773L174.814 88.9718L173.541 88.3705M177.423 94.1409L179.284 93.4023L179.012 75.5195M181.199 95.9213L184.141 91.1226L184.518 93.1073M181.199 95.9213L178.536 94.6633L183.212 87.6912L181.29 78.2114M181.199 95.9213L183.105 95.109L184.518 93.1073M181.29 78.2114L184.05 79.5144M181.29 78.2114L183.15 77.4729L185.91 78.7758M184.05 79.5144L185.246 85.7618L186.737 83.2405M184.05 79.5144L185.91 78.7758M187.945 81.357L190.608 82.615M187.945 81.357L186.737 83.2405M187.945 81.357L189.805 80.6184L192.469 81.8765M190.608 82.615L186.172 89.2183M190.608 82.615L192.469 81.8765M186.172 89.2183L188.194 99.2277M186.172 89.2183L188.032 88.4797M188.194 99.2277L185.434 97.9248L185.434 97.9221L184.518 93.1073M188.194 99.2277L190.055 98.4892L188.032 88.4797M185.91 78.7758L186.737 83.2405M192.469 81.8765L188.032 88.4797M174.846 86.3998L174.866 78.979L172.763 85.4188L174.844 86.4027L174.846 86.3998Z" stroke="black" stroke-width="0.2616"/>
<path d="M157.333 93.0811C157.373 92.1315 158.378 91.5377 159.229 91.9606L190.663 107.576C191.64 108.062 192.245 109.07 192.215 110.16C192.188 111.134 191.16 111.751 190.287 111.317L158.859 95.6642C157.885 95.1794 157.288 94.1675 157.333 93.0811Z" fill="url(#paint13_linear_10698_32617)" stroke="black" stroke-width="0.2616"/>
<path d="M156.813 102.429C156.853 101.48 157.857 100.886 158.708 101.309L190.142 116.925C191.119 117.41 191.725 118.418 191.695 119.508C191.668 120.483 190.639 121.1 189.767 120.665L158.338 105.013C157.365 104.528 156.767 103.516 156.813 102.429Z" fill="url(#paint14_linear_10698_32617)" stroke="black" stroke-width="0.2616"/>
<path d="M155.789 111.698C155.828 110.749 156.833 110.155 157.684 110.578L189.118 126.194C190.095 126.679 190.701 127.687 190.67 128.777C190.643 129.751 189.615 130.369 188.742 129.934L157.314 114.281C156.34 113.797 155.743 112.785 155.789 111.698Z" fill="url(#paint15_linear_10698_32617)" stroke="black" stroke-width="0.2616"/>
<path d="M153.516 130.051C153.516 139.361 148.521 146.103 141.418 146.103C134.316 146.103 126.432 135.794 126.432 126.484C126.432 117.174 131.228 110.489 138.331 110.489C145.433 110.489 153.516 120.741 153.516 130.051Z" fill="url(#paint16_linear_10698_32617)"/>
<path fill-rule="evenodd" clip-rule="evenodd" d="M157.564 130.397C157.564 118.803 147.183 106.037 138.06 106.037C136.292 106.037 134.636 106.35 133.114 106.938C132.053 107.348 131.057 107.892 130.135 108.558C128.773 109.54 127.571 110.788 126.554 112.26C125.923 113.174 125.363 114.175 124.88 115.253C124.577 115.93 124.304 116.637 124.063 117.372C123.477 119.164 123.08 121.124 122.895 123.215C122.817 124.106 122.777 125.02 122.777 125.955C122.777 126.131 122.779 126.308 122.784 126.484C122.806 127.339 122.882 128.199 123.008 129.059C123.401 131.753 124.279 134.448 125.505 136.97C129.133 144.432 135.812 150.387 142.025 150.387C142.912 150.387 143.773 150.308 144.606 150.154C152.335 148.725 157.564 140.864 157.564 130.397ZM141.418 146.103C148.521 146.103 153.516 139.361 153.516 130.051C153.516 120.741 145.433 110.489 138.331 110.489C131.228 110.489 126.432 117.174 126.432 126.484C126.432 135.794 134.316 146.103 141.418 146.103Z" fill="url(#paint17_linear_10698_32617)"/>
<path d="M138.06 106.037C147.183 106.037 157.564 118.803 157.564 130.397C157.564 140.864 152.335 148.725 144.606 150.154C148.537 150.387 157.216 148.505 160.484 139.116C164.569 127.379 159.243 114.814 151.436 108.558C143.628 102.302 136.715 105.318 133.114 106.938C134.636 106.35 136.292 106.037 138.06 106.037Z" fill="url(#paint18_linear_10698_32617)"/>
<path d="M130.135 108.558L118.504 101.959C117.9 101.616 117.235 101.604 116.669 101.829C115.902 102.133 115.317 102.873 115.317 103.815C115.317 104.949 115.917 105.998 116.894 106.573L126.554 112.26C127.571 110.788 128.773 109.54 130.135 108.558Z" fill="#F4A0C5"/>
<path d="M130.135 108.558C131.057 107.892 132.053 107.348 133.114 106.938L122.015 101.047C121.077 100.55 119.967 100.492 118.983 100.891L116.669 101.829C117.235 101.604 117.9 101.616 118.504 101.959L130.135 108.558Z" fill="#B54366"/>
<path d="M124.063 117.372L111.074 109.162C110.415 108.746 109.671 108.713 109.036 108.955C108.199 109.275 107.555 110.073 107.555 111.101C107.555 112.684 108.371 114.155 109.714 114.993L122.895 123.215C123.08 121.124 123.477 119.164 124.063 117.372Z" fill="#E790AE"/>
<path d="M123.008 129.059L116.878 125.316C116.257 124.937 115.564 124.898 114.964 125.107C114.106 125.405 113.438 126.208 113.438 127.246C113.438 128.845 114.281 130.324 115.656 131.139L125.505 136.97C124.279 134.448 123.401 131.753 123.008 129.059Z" fill="#D67B90"/>
<path d="M111.074 109.162L124.063 117.372C124.304 116.637 124.577 115.93 124.88 115.253C121.947 113.393 115.609 109.395 113.717 108.277C111.826 107.159 109.808 108.263 109.036 108.955C109.671 108.713 110.415 108.746 111.074 109.162Z" fill="#B54366"/>
<path d="M116.878 125.316L123.008 129.059C122.882 128.199 122.806 127.339 122.784 126.484C122.164 126.095 120.517 125.094 118.889 124.204C117.26 123.314 115.594 124.435 114.964 125.107C115.564 124.898 116.257 124.937 116.878 125.316Z" fill="#B54366"/>
<path d="M144.606 150.154C152.335 148.725 157.564 140.864 157.564 130.397C157.564 118.803 147.183 106.037 138.06 106.037C136.292 106.037 134.636 106.35 133.114 106.938M144.606 150.154C143.773 150.308 142.912 150.387 142.025 150.387C135.812 150.387 129.133 144.432 125.505 136.97M144.606 150.154C148.537 150.387 157.216 148.505 160.484 139.116C164.569 127.379 159.243 114.814 151.436 108.558C143.628 102.302 136.715 105.318 133.114 106.938M133.114 106.938C132.053 107.348 131.057 107.892 130.135 108.558M133.114 106.938L122.015 101.047C121.077 100.55 119.967 100.492 118.983 100.891L116.669 101.829M130.135 108.558L118.504 101.959C117.9 101.616 117.235 101.604 116.669 101.829M130.135 108.558C128.773 109.54 127.571 110.788 126.554 112.26M126.554 112.26L116.894 106.573C115.917 105.998 115.317 104.949 115.317 103.815C115.317 102.873 115.902 102.133 116.669 101.829M126.554 112.26C125.923 113.174 125.363 114.175 124.88 115.253M124.063 117.372L111.074 109.162C110.415 108.746 109.671 108.713 109.036 108.955M124.063 117.372C123.477 119.164 123.08 121.124 122.895 123.215M124.063 117.372C124.304 116.637 124.577 115.93 124.88 115.253M122.895 123.215C122.817 124.106 122.777 125.02 122.777 125.955C122.777 126.131 122.779 126.308 122.784 126.484M122.895 123.215L109.714 114.993C108.371 114.155 107.555 112.684 107.555 111.101C107.555 110.073 108.199 109.275 109.036 108.955M123.008 129.059L116.878 125.316C116.257 124.937 115.564 124.898 114.964 125.107M123.008 129.059C123.401 131.753 124.279 134.448 125.505 136.97M123.008 129.059C122.882 128.199 122.806 127.339 122.784 126.484M125.505 136.97L115.656 131.139C114.281 130.324 113.438 128.845 113.438 127.246C113.438 126.208 114.106 125.405 114.964 125.107M109.036 108.955C109.808 108.263 111.826 107.159 113.717 108.277C115.609 109.395 121.947 113.393 124.88 115.253M114.964 125.107C115.594 124.435 117.26 123.314 118.889 124.204C120.517 125.094 122.164 126.095 122.784 126.484M153.516 130.051C153.516 139.361 148.521 146.103 141.418 146.103C134.316 146.103 126.432 135.794 126.432 126.484C126.432 117.174 131.228 110.489 138.331 110.489C145.433 110.489 153.516 120.741 153.516 130.051Z" stroke="black" stroke-width="0.2616"/>
<path d="M101.708 96.1353C101.708 97.2692 102.308 98.3185 103.285 98.8938L109.226 102.311C109.877 102.685 110.608 102.639 111.177 102.311C111.749 101.982 112.158 101.369 112.158 100.615C112.158 99.8608 111.941 99.1379 111.552 98.5225C111.207 97.9782 110.728 97.5179 110.145 97.1941L104.895 94.2793C104.291 93.9368 103.626 93.9247 103.06 94.1492C102.292 94.4537 101.708 95.1938 101.708 96.1353Z" fill="#F7A3C9"/>
<path d="M112.158 100.615C112.158 101.369 111.749 101.982 111.177 102.311C114.227 101.968 114.772 99.89 114.663 98.8938C114.644 98.3392 114.492 97.8399 114.27 97.4032L111.552 98.5225C111.941 99.1379 112.158 99.8608 112.158 100.615Z" fill="#8C2F4D"/>
<path d="M103.06 94.1492C103.626 93.9247 104.291 93.9368 104.895 94.2793L110.145 97.1941C110.728 97.5179 111.207 97.9782 111.552 98.5225L114.27 97.4032C113.772 96.4251 112.922 95.7616 112.424 95.4961L108.406 93.3681C107.468 92.8703 106.358 92.8131 105.374 93.2118L103.06 94.1492Z" fill="#B54366"/>
<path d="M103.06 94.1492C103.626 93.9247 104.291 93.9368 104.895 94.2793L110.145 97.1941C110.728 97.5179 111.207 97.9782 111.552 98.5225M103.06 94.1492C102.292 94.4537 101.708 95.1938 101.708 96.1353C101.708 97.2692 102.308 98.3185 103.285 98.8938L109.226 102.311C109.877 102.685 110.608 102.639 111.177 102.311M103.06 94.1492L105.374 93.2118C106.358 92.8131 107.468 92.8703 108.406 93.3681L112.424 95.4961C112.922 95.7616 113.772 96.4251 114.27 97.4032M111.177 102.311C111.749 101.982 112.158 101.369 112.158 100.615C112.158 99.8608 111.941 99.1379 111.552 98.5225M111.177 102.311C114.227 101.968 114.772 99.89 114.663 98.8938C114.644 98.3392 114.492 97.8399 114.27 97.4032M111.552 98.5225L114.27 97.4032" stroke="black" stroke-width="0.2616"/>
<path d="M144.848 102.856L144.428 105.701C144.408 106.011 144.71 106.744 146.076 107.199C147.783 107.768 148.891 107.618 149.161 106.51L149.67 104.144C148.612 104.184 146.165 103.982 144.848 102.856Z" fill="#913150" stroke="black" stroke-width="0.2616"/>
<path d="M153.176 101.542C153.172 101.56 153.168 101.578 153.163 101.595C152.838 102.756 150.385 103.207 147.626 102.601C145.018 102.028 143.055 100.713 143.009 99.5653C143.005 99.4801 143.012 99.3957 143.031 99.3127C143.295 98.1121 145.78 97.6378 148.581 98.2533C151.383 98.8689 153.44 100.341 153.176 101.542Z" fill="#F190AE"/>
<path d="M153.163 101.595C152.838 102.756 150.385 103.207 147.626 102.601C145.018 102.028 143.055 100.713 143.009 99.5653L142.802 101.945C142.765 102.368 142.879 102.795 143.19 103.085C143.988 103.828 145.55 104.836 147.626 105.133C149.72 105.433 150.99 105.195 151.709 104.919C152.215 104.725 152.505 104.233 152.636 103.706L153.163 101.595Z" fill="#913150"/>
<path d="M153.176 101.542C153.44 100.341 151.383 98.8689 148.581 98.2533C145.78 97.6378 143.295 98.1121 143.031 99.3127M153.176 101.542L153.163 101.595M153.176 101.542C153.172 101.56 153.168 101.578 153.163 101.595M143.031 99.3127L143.009 99.5653M143.031 99.3127C143.012 99.3957 143.005 99.4801 143.009 99.5653M153.163 101.595C152.838 102.756 150.385 103.207 147.626 102.601C145.018 102.028 143.055 100.713 143.009 99.5653M153.163 101.595L152.636 103.706C152.505 104.233 152.215 104.725 151.709 104.919C150.99 105.195 149.72 105.433 147.626 105.133C145.55 104.836 143.988 103.828 143.19 103.085C142.879 102.795 142.765 102.368 142.802 101.945L143.009 99.5653" stroke="black" stroke-width="0.2616"/>
<path d="M161.179 117.692C161.163 117.701 161.147 117.71 161.13 117.718C160.044 118.24 158.086 116.695 156.72 114.222C155.43 111.884 155.122 109.542 155.954 108.75C156.015 108.691 156.084 108.64 156.158 108.599C157.234 108.005 159.23 109.559 160.617 112.07C162.004 114.581 162.256 117.098 161.179 117.692Z" fill="#F190AE"/>
<path d="M161.13 117.718C160.044 118.24 158.086 116.695 156.72 114.222C155.43 111.884 155.122 109.542 155.954 108.75L154.03 110.165C153.688 110.416 153.442 110.784 153.429 111.209C153.398 112.298 153.671 114.137 154.818 115.893C155.975 117.664 156.992 118.462 157.673 118.819C158.154 119.071 158.714 118.964 159.197 118.715L161.13 117.718Z" fill="#913150"/>
<path d="M161.179 117.692C162.256 117.098 162.004 114.581 160.617 112.07C159.23 109.559 157.234 108.005 156.158 108.599M161.179 117.692L161.13 117.718M161.179 117.692C161.163 117.701 161.147 117.71 161.13 117.718M156.158 108.599L155.954 108.75M156.158 108.599C156.084 108.64 156.015 108.691 155.954 108.75M161.13 117.718C160.044 118.24 158.086 116.695 156.72 114.222C155.43 111.884 155.122 109.542 155.954 108.75M161.13 117.718L159.197 118.715C158.714 118.964 158.154 119.071 157.673 118.819C156.992 118.462 155.975 117.664 154.818 115.893C153.671 114.137 153.398 112.298 153.429 111.209C153.442 110.784 153.688 110.416 154.03 110.165L155.954 108.75" stroke="black" stroke-width="0.2616"/>
<path d="M146.355 121.486L141.133 126.007L141.916 127.987L147.176 123.624C147.76 123.139 147.894 122.297 147.49 121.655C147.243 121.263 146.705 121.183 146.355 121.486Z" fill="#9A3656" stroke="black" stroke-width="0.2616"/>
<ellipse cx="140.111" cy="127.931" rx="2.19597" ry="3.05625" transform="rotate(-14.2239 140.111 127.931)" fill="#923250" stroke="black" stroke-width="0.2616"/>
<ellipse cx="139.454" cy="128.294" rx="2.19597" ry="3.05625" transform="rotate(-14.2239 139.454 128.294)" fill="#EC96B7" stroke="black" stroke-width="0.2616"/>
</g>
<defs>
<filter id="filter0_f_10698_32617" x="129.12" y="141.478" width="23.5601" height="11.0767" filterUnits="userSpaceOnUse" color-interpolation-filters="sRGB">
<feFlood flood-opacity="0" result="BackgroundImageFix"/>
<feBlend mode="normal" in="SourceGraphic" in2="BackgroundImageFix" result="shape"/>
<feGaussianBlur stdDeviation="0.872" result="effect1_foregroundBlur_10698_32617"/>
</filter>
<filter id="filter1_f_10698_32617" x="109.582" y="128.393" width="58.9242" height="37.6118" filterUnits="userSpaceOnUse" color-interpolation-filters="sRGB">
<feFlood flood-opacity="0" result="BackgroundImageFix"/>
<feBlend mode="normal" in="SourceGraphic" in2="BackgroundImageFix" result="shape"/>
<feGaussianBlur stdDeviation="3.052" result="effect1_foregroundBlur_10698_32617"/>
</filter>
<filter id="filter2_f_10698_32617" x="156.757" y="133.182" width="51.497" height="29.18" filterUnits="userSpaceOnUse" color-interpolation-filters="sRGB">
<feFlood flood-opacity="0" result="BackgroundImageFix"/>
<feBlend mode="normal" in="SourceGraphic" in2="BackgroundImageFix" result="shape"/>
<feGaussianBlur stdDeviation="0.872" result="effect1_foregroundBlur_10698_32617"/>
</filter>
<filter id="filter3_f_10698_32617" x="148.227" y="124.648" width="68.937" height="46.62" filterUnits="userSpaceOnUse" color-interpolation-filters="sRGB">
<feFlood flood-opacity="0" result="BackgroundImageFix"/>
<feBlend mode="normal" in="SourceGraphic" in2="BackgroundImageFix" result="shape"/>
<feGaussianBlur stdDeviation="5.232" result="effect1_foregroundBlur_10698_32617"/>
</filter>
<radialGradient id="paint0_radial_10698_32617" cx="0" cy="0" r="1" gradientUnits="userSpaceOnUse" gradientTransform="translate(163.564 128.142) rotate(90) scale(73.7595 125.132)">
<stop stop-color="#E29CC6"/>
<stop offset="1" stop-color="#530D3B" stop-opacity="0"/>
</radialGradient>
<radialGradient id="paint1_radial_10698_32617" cx="0" cy="0" r="1" gradientUnits="userSpaceOnUse" gradientTransform="translate(139.045 147.199) rotate(90) scale(5.83593 25.9365)">
<stop/>
<stop offset="1" stop-opacity="0"/>
<stop offset="1" stop-color="#241337" stop-opacity="0"/>
</radialGradient>
<linearGradient id="paint2_linear_10698_32617" x1="160.288" y1="41.4134" x2="182.482" y2="161.832" gradientUnits="userSpaceOnUse">
<stop stop-color="white"/>
<stop offset="1" stop-color="#EEA6DE"/>
</linearGradient>
<linearGradient id="paint3_linear_10698_32617" x1="175.71" y1="39.1432" x2="196.992" y2="143.863" gradientUnits="userSpaceOnUse">
<stop stop-color="#DD5780"/>
<stop offset="1" stop-color="#450A1F"/>
</linearGradient>
<linearGradient id="paint4_linear_10698_32617" x1="175.71" y1="39.1432" x2="182.482" y2="161.832" gradientUnits="userSpaceOnUse">
<stop stop-color="#ECA2A2"/>
<stop offset="1" stop-color="#B85D7D"/>
</linearGradient>
<linearGradient id="paint5_linear_10698_32617" x1="179.096" y1="38.8451" x2="203.976" y2="157.239" gradientUnits="userSpaceOnUse">
<stop stop-color="#CC5378"/>
<stop offset="1" stop-color="#43081D"/>
</linearGradient>
<linearGradient id="paint6_linear_10698_32617" x1="158.981" y1="123.638" x2="151.102" y2="130.248" gradientUnits="userSpaceOnUse">
<stop stop-color="#EB9AFF"/>
<stop offset="1" stop-color="#4C1470"/>
</linearGradient>
<linearGradient id="paint7_linear_10698_32617" x1="175.477" y1="34.3468" x2="189.387" y2="81.9763" gradientUnits="userSpaceOnUse">
<stop stop-color="#D5A2C4"/>
<stop offset="1" stop-color="#C0527A"/>
</linearGradient>
<linearGradient id="paint8_linear_10698_32617" x1="177.721" y1="38.7167" x2="190.157" y2="71.2157" gradientUnits="userSpaceOnUse">
<stop stop-color="#B04465"/>
<stop offset="1" stop-color="#460A20"/>
</linearGradient>
<linearGradient id="paint9_linear_10698_32617" x1="177.606" y1="38.7258" x2="180.388" y2="73.6302" gradientUnits="userSpaceOnUse">
<stop stop-color="#721073"/>
<stop offset="1" stop-color="#1C0222"/>
</linearGradient>
<linearGradient id="paint10_linear_10698_32617" x1="177.343" y1="68.6324" x2="185.185" y2="99.1712" gradientUnits="userSpaceOnUse">
<stop stop-color="#FEE4ED"/>
<stop offset="1" stop-color="#FFA8D2"/>
</linearGradient>
<linearGradient id="paint11_linear_10698_32617" x1="177.343" y1="68.6324" x2="185.185" y2="99.1712" gradientUnits="userSpaceOnUse">
<stop stop-color="#FEE4ED"/>
<stop offset="1" stop-color="#FFA8D2"/>
</linearGradient>
<linearGradient id="paint12_linear_10698_32617" x1="177.343" y1="68.6324" x2="185.185" y2="99.1712" gradientUnits="userSpaceOnUse">
<stop stop-color="#FEE4ED"/>
<stop offset="1" stop-color="#FFA8D2"/>
</linearGradient>
<linearGradient id="paint13_linear_10698_32617" x1="173.932" y1="90.5288" x2="175.616" y2="112.75" gradientUnits="userSpaceOnUse">
<stop stop-color="#AF4465"/>
<stop offset="1" stop-color="#460A20"/>
</linearGradient>
<linearGradient id="paint14_linear_10698_32617" x1="173.411" y1="99.8772" x2="175.095" y2="122.099" gradientUnits="userSpaceOnUse">
<stop stop-color="#AF4465"/>
<stop offset="1" stop-color="#460A20"/>
</linearGradient>
<linearGradient id="paint15_linear_10698_32617" x1="172.387" y1="109.146" x2="174.071" y2="131.367" gradientUnits="userSpaceOnUse">
<stop stop-color="#AF4465"/>
<stop offset="1" stop-color="#460A20"/>
</linearGradient>
<linearGradient id="paint16_linear_10698_32617" x1="136.364" y1="105.697" x2="144.117" y2="147.043" gradientUnits="userSpaceOnUse">
<stop stop-color="#FFF9FF"/>
<stop offset="1" stop-color="#F0B0E2"/>
</linearGradient>
<linearGradient id="paint17_linear_10698_32617" x1="134.725" y1="105.817" x2="143.957" y2="149.369" gradientUnits="userSpaceOnUse">
<stop stop-color="#FAA7CF"/>
<stop offset="1" stop-color="#B8555B"/>
</linearGradient>
<linearGradient id="paint18_linear_10698_32617" x1="134.725" y1="100.628" x2="140.058" y2="164.436" gradientUnits="userSpaceOnUse">
<stop stop-color="#D25279"/>
<stop offset="1" stop-color="#450A1F"/>
</linearGradient>
<clipPath id="clip0_10698_32617">
<rect width="327" height="202.304" fill="white"/>
</clipPath>
</defs>
</svg>
